<mxfile host="app.diagrams.net" modified="2024-05-26T21:46:03.167Z" agent="Mozilla/5.0 (Windows NT 10.0; Win64; x64) AppleWebKit/537.36 (KHTML, like Gecko) Chrome/125.0.0.0 Safari/537.36" etag="5vUjNbwGY7dkj8XV3cxF" version="24.4.8" type="github">
  <diagram name="Page-1" id="aGtIWoqIngweozj84-rB">
    <mxGraphModel dx="4460" dy="2420" grid="0" gridSize="10" guides="1" tooltips="1" connect="1" arrows="1" fold="1" page="0" pageScale="1" pageWidth="827" pageHeight="1169" math="0" shadow="0">
      <root>
        <mxCell id="0" />
        <mxCell id="1" parent="0" />
        <mxCell id="aLUyHMG_e6lteH9gZZ4V-2" value="&amp;lt;&amp;lt; &lt;b&gt;system&amp;nbsp;&lt;/b&gt;&amp;gt;&amp;gt;&lt;div&gt;&lt;br&gt;&lt;b&gt;MyClinic&lt;/b&gt;&lt;/div&gt;" style="shape=rect;html=1;whiteSpace=wrap;align=center;verticalAlign=top;fillColor=#FFFFFF;" vertex="1" parent="1">
          <mxGeometry x="1201" y="-38" width="120" height="60" as="geometry" />
        </mxCell>
        <mxCell id="aLUyHMG_e6lteH9gZZ4V-3" value="" style="endArrow=diamondThin;endFill=1;endSize=24;html=1;rounded=0;exitX=0.5;exitY=0;exitDx=0;exitDy=0;edgeStyle=orthogonalEdgeStyle;" edge="1" parent="1" source="aLUyHMG_e6lteH9gZZ4V-6" target="aLUyHMG_e6lteH9gZZ4V-2">
          <mxGeometry width="160" relative="1" as="geometry">
            <mxPoint x="270" y="134" as="sourcePoint" />
            <mxPoint x="442" y="126" as="targetPoint" />
          </mxGeometry>
        </mxCell>
        <mxCell id="aLUyHMG_e6lteH9gZZ4V-4" value="&amp;lt;&amp;lt; &lt;b&gt;subsystem&amp;nbsp;&lt;/b&gt;&amp;gt;&amp;gt;&lt;div&gt;&lt;br&gt;&lt;/div&gt;&lt;div&gt;&lt;b&gt;Register patient&lt;/b&gt;&lt;/div&gt;" style="shape=rect;html=1;whiteSpace=wrap;align=center;verticalAlign=top;fillColor=#FFFFFF;" vertex="1" parent="1">
          <mxGeometry x="-300" y="170" width="120" height="60" as="geometry" />
        </mxCell>
        <mxCell id="aLUyHMG_e6lteH9gZZ4V-5" value="&amp;lt;&amp;lt; &lt;b&gt;subsystem&amp;nbsp;&lt;/b&gt;&amp;gt;&amp;gt;&lt;div&gt;&lt;br&gt;&lt;/div&gt;&lt;div&gt;&lt;b&gt;Schedule appointment&lt;/b&gt;&lt;/div&gt;" style="shape=rect;html=1;whiteSpace=wrap;align=center;verticalAlign=top;fillColor=#FFFFFF;" vertex="1" parent="1">
          <mxGeometry x="196" y="170" width="148" height="60" as="geometry" />
        </mxCell>
        <mxCell id="aLUyHMG_e6lteH9gZZ4V-6" value="&amp;lt;&amp;lt; &lt;b&gt;subsystem&amp;nbsp;&lt;/b&gt;&amp;gt;&amp;gt;&lt;div&gt;&lt;br&gt;&lt;/div&gt;&lt;div&gt;&lt;b&gt;Check-in&lt;/b&gt;&lt;/div&gt;" style="shape=rect;html=1;whiteSpace=wrap;align=center;verticalAlign=top;fillColor=#FFFFFF;" vertex="1" parent="1">
          <mxGeometry x="875" y="170" width="148" height="60" as="geometry" />
        </mxCell>
        <mxCell id="aLUyHMG_e6lteH9gZZ4V-7" value="&amp;lt;&amp;lt; &lt;b&gt;subsystem&amp;nbsp;&lt;/b&gt;&amp;gt;&amp;gt;&lt;div&gt;&lt;br&gt;&lt;/div&gt;&lt;div&gt;&lt;b&gt;See list of doctors&lt;/b&gt;&lt;/div&gt;" style="shape=rect;html=1;whiteSpace=wrap;align=center;verticalAlign=top;fillColor=#FFFFFF;" vertex="1" parent="1">
          <mxGeometry x="1496" y="170" width="148" height="60" as="geometry" />
        </mxCell>
        <mxCell id="aLUyHMG_e6lteH9gZZ4V-8" value="&amp;lt;&amp;lt; &lt;b&gt;subsystem&amp;nbsp;&lt;/b&gt;&amp;gt;&amp;gt;&lt;div&gt;&lt;br&gt;&lt;/div&gt;&lt;div&gt;&lt;b&gt;See appointments&lt;/b&gt;&lt;/div&gt;" style="shape=rect;html=1;whiteSpace=wrap;align=center;verticalAlign=top;fillColor=#FFFFFF;" vertex="1" parent="1">
          <mxGeometry x="2025" y="170" width="148" height="60" as="geometry" />
        </mxCell>
        <mxCell id="aLUyHMG_e6lteH9gZZ4V-9" value="&amp;lt;&amp;lt; &lt;b&gt;subsystem&amp;nbsp;&lt;/b&gt;&amp;gt;&amp;gt;&lt;div&gt;&lt;br&gt;&lt;/div&gt;&lt;div&gt;&lt;b&gt;Review doctor&lt;/b&gt;&lt;/div&gt;" style="shape=rect;html=1;whiteSpace=wrap;align=center;verticalAlign=top;fillColor=#FFFFFF;" vertex="1" parent="1">
          <mxGeometry x="2559" y="170" width="148" height="60" as="geometry" />
        </mxCell>
        <mxCell id="aLUyHMG_e6lteH9gZZ4V-10" value="" style="endArrow=diamondThin;endFill=1;endSize=24;html=1;rounded=0;entryX=0.5;entryY=1;entryDx=0;entryDy=0;edgeStyle=orthogonalEdgeStyle;exitX=0.5;exitY=0;exitDx=0;exitDy=0;" edge="1" parent="1" source="aLUyHMG_e6lteH9gZZ4V-5" target="aLUyHMG_e6lteH9gZZ4V-2">
          <mxGeometry width="160" relative="1" as="geometry">
            <mxPoint x="270" y="134" as="sourcePoint" />
            <mxPoint x="270" y="20" as="targetPoint" />
          </mxGeometry>
        </mxCell>
        <mxCell id="aLUyHMG_e6lteH9gZZ4V-11" value="" style="endArrow=diamondThin;endFill=1;endSize=24;html=1;rounded=0;entryX=0.5;entryY=1;entryDx=0;entryDy=0;exitX=0.5;exitY=0;exitDx=0;exitDy=0;edgeStyle=orthogonalEdgeStyle;" edge="1" parent="1" source="aLUyHMG_e6lteH9gZZ4V-4" target="aLUyHMG_e6lteH9gZZ4V-2">
          <mxGeometry width="160" relative="1" as="geometry">
            <mxPoint x="280" y="144" as="sourcePoint" />
            <mxPoint x="280" y="30" as="targetPoint" />
          </mxGeometry>
        </mxCell>
        <mxCell id="aLUyHMG_e6lteH9gZZ4V-12" value="&amp;lt;&amp;lt; &lt;b&gt;interface&amp;nbsp;&lt;/b&gt;&amp;gt;&amp;gt;&lt;div&gt;&lt;br&gt;&lt;/div&gt;&lt;div&gt;&lt;b&gt;Int Schedule Appointment&lt;/b&gt;&lt;/div&gt;" style="shape=rect;html=1;whiteSpace=wrap;align=center;verticalAlign=top;fillColor=#FFFFFF;" vertex="1" parent="1">
          <mxGeometry x="25" y="344" width="154" height="60" as="geometry" />
        </mxCell>
        <mxCell id="aLUyHMG_e6lteH9gZZ4V-13" value="" style="endArrow=diamondThin;endFill=1;endSize=24;html=1;rounded=0;entryX=0.5;entryY=1;entryDx=0;entryDy=0;exitX=0.5;exitY=0;exitDx=0;exitDy=0;edgeStyle=orthogonalEdgeStyle;" edge="1" parent="1" source="aLUyHMG_e6lteH9gZZ4V-12" target="aLUyHMG_e6lteH9gZZ4V-5">
          <mxGeometry width="160" relative="1" as="geometry">
            <mxPoint x="82" y="180" as="sourcePoint" />
            <mxPoint x="280" y="30" as="targetPoint" />
          </mxGeometry>
        </mxCell>
        <mxCell id="aLUyHMG_e6lteH9gZZ4V-14" value="&amp;lt;&amp;lt; &lt;b&gt;control&amp;nbsp;&lt;/b&gt;&amp;gt;&amp;gt;&lt;div&gt;&lt;br&gt;&lt;/div&gt;&lt;div&gt;&lt;b&gt;Appointments controller&lt;/b&gt;&lt;/div&gt;" style="shape=rect;html=1;whiteSpace=wrap;align=center;verticalAlign=top;fillColor=#FFFFFF;" vertex="1" parent="1">
          <mxGeometry x="188" y="344" width="164" height="60" as="geometry" />
        </mxCell>
        <mxCell id="aLUyHMG_e6lteH9gZZ4V-15" value="" style="endArrow=diamondThin;endFill=1;endSize=24;html=1;rounded=0;entryX=0.5;entryY=1;entryDx=0;entryDy=0;exitX=0.5;exitY=0;exitDx=0;exitDy=0;edgeStyle=orthogonalEdgeStyle;" edge="1" parent="1" source="aLUyHMG_e6lteH9gZZ4V-14" target="aLUyHMG_e6lteH9gZZ4V-5">
          <mxGeometry width="160" relative="1" as="geometry">
            <mxPoint x="136" y="354" as="sourcePoint" />
            <mxPoint x="280" y="240" as="targetPoint" />
          </mxGeometry>
        </mxCell>
        <mxCell id="aLUyHMG_e6lteH9gZZ4V-16" value="&amp;lt;&amp;lt; &lt;b&gt;data&amp;nbsp;&lt;/b&gt;&amp;gt;&amp;gt;&lt;div&gt;&lt;br&gt;&lt;/div&gt;&lt;div&gt;&lt;b&gt;Appointment&lt;/b&gt;&lt;/div&gt;" style="shape=rect;html=1;whiteSpace=wrap;align=center;verticalAlign=top;fillColor=#FFFFFF;" vertex="1" parent="1">
          <mxGeometry x="363" y="344" width="148" height="60" as="geometry" />
        </mxCell>
        <mxCell id="aLUyHMG_e6lteH9gZZ4V-17" value="" style="endArrow=diamondThin;endFill=1;endSize=24;html=1;rounded=0;entryX=0.5;entryY=1;entryDx=0;entryDy=0;exitX=0.5;exitY=0;exitDx=0;exitDy=0;edgeStyle=orthogonalEdgeStyle;" edge="1" parent="1" source="aLUyHMG_e6lteH9gZZ4V-16" target="aLUyHMG_e6lteH9gZZ4V-5">
          <mxGeometry width="160" relative="1" as="geometry">
            <mxPoint x="280" y="354" as="sourcePoint" />
            <mxPoint x="280" y="240" as="targetPoint" />
          </mxGeometry>
        </mxCell>
        <mxCell id="aLUyHMG_e6lteH9gZZ4V-22" value="&amp;lt;&amp;lt; &lt;b&gt;interface&amp;nbsp;&lt;/b&gt;&amp;gt;&amp;gt;&lt;div&gt;&lt;br&gt;&lt;/div&gt;&lt;div&gt;&lt;b&gt;Int Register patient&lt;/b&gt;&lt;/div&gt;" style="shape=rect;html=1;whiteSpace=wrap;align=center;verticalAlign=top;fillColor=#FFFFFF;" vertex="1" parent="1">
          <mxGeometry x="-485" y="344" width="154" height="60" as="geometry" />
        </mxCell>
        <mxCell id="aLUyHMG_e6lteH9gZZ4V-23" value="" style="endArrow=diamondThin;endFill=1;endSize=24;html=1;rounded=0;entryX=0.5;entryY=1;entryDx=0;entryDy=0;exitX=0.5;exitY=0;exitDx=0;exitDy=0;edgeStyle=orthogonalEdgeStyle;" edge="1" source="aLUyHMG_e6lteH9gZZ4V-22" parent="1" target="aLUyHMG_e6lteH9gZZ4V-4">
          <mxGeometry width="160" relative="1" as="geometry">
            <mxPoint x="-428" y="186" as="sourcePoint" />
            <mxPoint x="-240" y="236" as="targetPoint" />
          </mxGeometry>
        </mxCell>
        <mxCell id="aLUyHMG_e6lteH9gZZ4V-24" value="&amp;lt;&amp;lt; &lt;b&gt;control&amp;nbsp;&lt;/b&gt;&amp;gt;&amp;gt;&lt;div&gt;&lt;br&gt;&lt;/div&gt;&lt;div&gt;&lt;b&gt;P&lt;/b&gt;&lt;b style=&quot;background-color: initial;&quot;&gt;atient controller&lt;/b&gt;&lt;/div&gt;" style="shape=rect;html=1;whiteSpace=wrap;align=center;verticalAlign=top;fillColor=#FFFFFF;" vertex="1" parent="1">
          <mxGeometry x="-322" y="344" width="164" height="60" as="geometry" />
        </mxCell>
        <mxCell id="aLUyHMG_e6lteH9gZZ4V-25" value="" style="endArrow=diamondThin;endFill=1;endSize=24;html=1;rounded=0;entryX=0.5;entryY=1;entryDx=0;entryDy=0;exitX=0.5;exitY=0;exitDx=0;exitDy=0;edgeStyle=orthogonalEdgeStyle;" edge="1" source="aLUyHMG_e6lteH9gZZ4V-24" parent="1" target="aLUyHMG_e6lteH9gZZ4V-4">
          <mxGeometry width="160" relative="1" as="geometry">
            <mxPoint x="-374" y="360" as="sourcePoint" />
            <mxPoint x="-240" y="236" as="targetPoint" />
          </mxGeometry>
        </mxCell>
        <mxCell id="aLUyHMG_e6lteH9gZZ4V-26" value="&amp;lt;&amp;lt; &lt;b&gt;data&amp;nbsp;&lt;/b&gt;&amp;gt;&amp;gt;&lt;div&gt;&lt;br&gt;&lt;/div&gt;&lt;div&gt;&lt;b&gt;Patient&lt;/b&gt;&lt;br&gt;&lt;/div&gt;" style="shape=rect;html=1;whiteSpace=wrap;align=center;verticalAlign=top;fillColor=#FFFFFF;" vertex="1" parent="1">
          <mxGeometry x="-147" y="344" width="148" height="60" as="geometry" />
        </mxCell>
        <mxCell id="aLUyHMG_e6lteH9gZZ4V-27" value="" style="endArrow=diamondThin;endFill=1;endSize=24;html=1;rounded=0;entryX=0.5;entryY=1;entryDx=0;entryDy=0;exitX=0.5;exitY=0;exitDx=0;exitDy=0;edgeStyle=orthogonalEdgeStyle;" edge="1" source="aLUyHMG_e6lteH9gZZ4V-26" parent="1" target="aLUyHMG_e6lteH9gZZ4V-4">
          <mxGeometry width="160" relative="1" as="geometry">
            <mxPoint x="-230" y="360" as="sourcePoint" />
            <mxPoint x="-240" y="236" as="targetPoint" />
          </mxGeometry>
        </mxCell>
        <mxCell id="aLUyHMG_e6lteH9gZZ4V-28" value="&lt;b&gt;&lt;font style=&quot;font-size: 30px;&quot;&gt;Nota -&amp;gt; Perguntar se podemos ter um único bloco para a DB (como no exemplo dos slides)&lt;/font&gt;&lt;/b&gt;" style="text;html=1;align=center;verticalAlign=middle;resizable=0;points=[];autosize=1;strokeColor=none;fillColor=none;" vertex="1" parent="1">
          <mxGeometry x="-466" y="-202" width="1317" height="48" as="geometry" />
        </mxCell>
        <mxCell id="aLUyHMG_e6lteH9gZZ4V-29" value="&amp;lt;&amp;lt; &lt;b&gt;interface&amp;nbsp;&lt;/b&gt;&amp;gt;&amp;gt;&lt;div&gt;&lt;br&gt;&lt;/div&gt;&lt;div&gt;&lt;b&gt;Int Check-in&lt;/b&gt;&lt;/div&gt;" style="shape=rect;html=1;whiteSpace=wrap;align=center;verticalAlign=top;fillColor=#FFFFFF;" vertex="1" parent="1">
          <mxGeometry x="706" y="344" width="154" height="60" as="geometry" />
        </mxCell>
        <mxCell id="aLUyHMG_e6lteH9gZZ4V-30" value="" style="endArrow=diamondThin;endFill=1;endSize=24;html=1;rounded=0;entryX=0.5;entryY=1;entryDx=0;entryDy=0;exitX=0.5;exitY=0;exitDx=0;exitDy=0;edgeStyle=orthogonalEdgeStyle;" edge="1" source="aLUyHMG_e6lteH9gZZ4V-29" parent="1" target="aLUyHMG_e6lteH9gZZ4V-6">
          <mxGeometry width="160" relative="1" as="geometry">
            <mxPoint x="763" y="180" as="sourcePoint" />
            <mxPoint x="951" y="230" as="targetPoint" />
          </mxGeometry>
        </mxCell>
        <mxCell id="aLUyHMG_e6lteH9gZZ4V-31" value="&amp;lt;&amp;lt; &lt;b&gt;control&amp;nbsp;&lt;/b&gt;&amp;gt;&amp;gt;&lt;div&gt;&lt;br&gt;&lt;/div&gt;&lt;div&gt;&lt;b&gt;Check-in controller&lt;/b&gt;&lt;/div&gt;" style="shape=rect;html=1;whiteSpace=wrap;align=center;verticalAlign=top;fillColor=#FFFFFF;" vertex="1" parent="1">
          <mxGeometry x="867" y="344" width="164" height="60" as="geometry" />
        </mxCell>
        <mxCell id="aLUyHMG_e6lteH9gZZ4V-32" value="" style="endArrow=diamondThin;endFill=1;endSize=24;html=1;rounded=0;entryX=0.5;entryY=1;entryDx=0;entryDy=0;exitX=0.5;exitY=0;exitDx=0;exitDy=0;edgeStyle=orthogonalEdgeStyle;" edge="1" source="aLUyHMG_e6lteH9gZZ4V-31" parent="1" target="aLUyHMG_e6lteH9gZZ4V-6">
          <mxGeometry width="160" relative="1" as="geometry">
            <mxPoint x="979" y="344" as="sourcePoint" />
            <mxPoint x="979" y="230" as="targetPoint" />
          </mxGeometry>
        </mxCell>
        <mxCell id="aLUyHMG_e6lteH9gZZ4V-33" value="&amp;lt;&amp;lt; &lt;b&gt;data&amp;nbsp;&lt;/b&gt;&amp;gt;&amp;gt;&lt;div&gt;&lt;br&gt;&lt;/div&gt;&lt;div&gt;&lt;b&gt;Card&lt;/b&gt;&lt;/div&gt;" style="shape=rect;html=1;whiteSpace=wrap;align=center;verticalAlign=top;fillColor=#FFFFFF;" vertex="1" parent="1">
          <mxGeometry x="1038" y="344" width="148" height="60" as="geometry" />
        </mxCell>
        <mxCell id="aLUyHMG_e6lteH9gZZ4V-34" value="" style="endArrow=diamondThin;endFill=1;endSize=24;html=1;rounded=0;entryX=0.5;entryY=1;entryDx=0;entryDy=0;exitX=0.5;exitY=0;exitDx=0;exitDy=0;edgeStyle=orthogonalEdgeStyle;" edge="1" source="aLUyHMG_e6lteH9gZZ4V-33" parent="1" target="aLUyHMG_e6lteH9gZZ4V-6">
          <mxGeometry width="160" relative="1" as="geometry">
            <mxPoint x="1084.81" y="344.48" as="sourcePoint" />
            <mxPoint x="918.0299999999997" y="229.99999999999997" as="targetPoint" />
          </mxGeometry>
        </mxCell>
        <mxCell id="aLUyHMG_e6lteH9gZZ4V-35" value="&amp;lt;&amp;lt; &lt;b&gt;block&lt;/b&gt;&amp;gt;&amp;gt;&lt;div&gt;&lt;br&gt;&lt;/div&gt;&lt;div&gt;&lt;b&gt;Card reader&lt;/b&gt;&lt;/div&gt;" style="shape=rect;html=1;whiteSpace=wrap;align=center;verticalAlign=top;fillColor=#FFFFFF;" vertex="1" parent="1">
          <mxGeometry x="616" y="483" width="154" height="60" as="geometry" />
        </mxCell>
        <mxCell id="aLUyHMG_e6lteH9gZZ4V-36" value="&amp;lt;&amp;lt; &lt;b&gt;block&amp;nbsp;&lt;/b&gt;&amp;gt;&amp;gt;&lt;div&gt;&lt;br&gt;&lt;/div&gt;&lt;div&gt;&lt;b&gt;Ticker printer&lt;/b&gt;&lt;/div&gt;" style="shape=rect;html=1;whiteSpace=wrap;align=center;verticalAlign=top;fillColor=#FFFFFF;" vertex="1" parent="1">
          <mxGeometry x="794" y="483" width="154" height="60" as="geometry" />
        </mxCell>
        <mxCell id="aLUyHMG_e6lteH9gZZ4V-37" value="" style="endArrow=diamondThin;endFill=1;endSize=24;html=1;rounded=0;exitX=0.5;exitY=0;exitDx=0;exitDy=0;edgeStyle=orthogonalEdgeStyle;entryX=0.5;entryY=1;entryDx=0;entryDy=0;" edge="1" parent="1" source="aLUyHMG_e6lteH9gZZ4V-35" target="aLUyHMG_e6lteH9gZZ4V-29">
          <mxGeometry width="160" relative="1" as="geometry">
            <mxPoint x="590" y="514" as="sourcePoint" />
            <mxPoint x="756" y="400" as="targetPoint" />
          </mxGeometry>
        </mxCell>
        <mxCell id="aLUyHMG_e6lteH9gZZ4V-38" value="" style="endArrow=diamondThin;endFill=1;endSize=24;html=1;rounded=0;exitX=0.5;exitY=0;exitDx=0;exitDy=0;edgeStyle=orthogonalEdgeStyle;entryX=0.5;entryY=1;entryDx=0;entryDy=0;" edge="1" parent="1" source="aLUyHMG_e6lteH9gZZ4V-36" target="aLUyHMG_e6lteH9gZZ4V-29">
          <mxGeometry width="160" relative="1" as="geometry">
            <mxPoint x="636" y="492" as="sourcePoint" />
            <mxPoint x="793" y="413" as="targetPoint" />
          </mxGeometry>
        </mxCell>
        <mxCell id="aLUyHMG_e6lteH9gZZ4V-41" value="" style="endArrow=diamondThin;endFill=1;endSize=24;html=1;rounded=0;exitX=0.5;exitY=0;exitDx=0;exitDy=0;edgeStyle=orthogonalEdgeStyle;entryX=0.5;entryY=1;entryDx=0;entryDy=0;" edge="1" parent="1" source="aLUyHMG_e6lteH9gZZ4V-7" target="aLUyHMG_e6lteH9gZZ4V-2">
          <mxGeometry width="160" relative="1" as="geometry">
            <mxPoint x="959" y="180" as="sourcePoint" />
            <mxPoint x="280" y="30" as="targetPoint" />
          </mxGeometry>
        </mxCell>
        <mxCell id="aLUyHMG_e6lteH9gZZ4V-43" value="&amp;lt;&amp;lt; &lt;b&gt;interface&amp;nbsp;&lt;/b&gt;&amp;gt;&amp;gt;&lt;div&gt;&lt;br&gt;&lt;/div&gt;&lt;div&gt;&lt;b&gt;Int List doctors&lt;/b&gt;&lt;/div&gt;" style="shape=rect;html=1;whiteSpace=wrap;align=center;verticalAlign=top;fillColor=#FFFFFF;" vertex="1" parent="1">
          <mxGeometry x="1325" y="340" width="154" height="60" as="geometry" />
        </mxCell>
        <mxCell id="aLUyHMG_e6lteH9gZZ4V-44" value="" style="endArrow=diamondThin;endFill=1;endSize=24;html=1;rounded=0;entryX=0.5;entryY=1;entryDx=0;entryDy=0;exitX=0.5;exitY=0;exitDx=0;exitDy=0;edgeStyle=orthogonalEdgeStyle;" edge="1" source="aLUyHMG_e6lteH9gZZ4V-43" target="aLUyHMG_e6lteH9gZZ4V-7" parent="1">
          <mxGeometry width="160" relative="1" as="geometry">
            <mxPoint x="1382" y="246" as="sourcePoint" />
            <mxPoint x="1570" y="290.0000000000002" as="targetPoint" />
          </mxGeometry>
        </mxCell>
        <mxCell id="aLUyHMG_e6lteH9gZZ4V-45" value="&amp;lt;&amp;lt; &lt;b&gt;control&amp;nbsp;&lt;/b&gt;&amp;gt;&amp;gt;&lt;div&gt;&lt;br&gt;&lt;/div&gt;&lt;div&gt;&lt;b style=&quot;background-color: initial;&quot;&gt;Doctor controller&lt;/b&gt;&lt;/div&gt;" style="shape=rect;html=1;whiteSpace=wrap;align=center;verticalAlign=top;fillColor=#FFFFFF;" vertex="1" parent="1">
          <mxGeometry x="1488" y="340" width="164" height="60" as="geometry" />
        </mxCell>
        <mxCell id="aLUyHMG_e6lteH9gZZ4V-46" value="" style="endArrow=diamondThin;endFill=1;endSize=24;html=1;rounded=0;entryX=0.5;entryY=1;entryDx=0;entryDy=0;exitX=0.5;exitY=0;exitDx=0;exitDy=0;edgeStyle=orthogonalEdgeStyle;" edge="1" source="aLUyHMG_e6lteH9gZZ4V-45" target="aLUyHMG_e6lteH9gZZ4V-7" parent="1">
          <mxGeometry width="160" relative="1" as="geometry">
            <mxPoint x="1436" y="420" as="sourcePoint" />
            <mxPoint x="1570" y="290.0000000000002" as="targetPoint" />
          </mxGeometry>
        </mxCell>
        <mxCell id="aLUyHMG_e6lteH9gZZ4V-47" value="&amp;lt;&amp;lt; &lt;b&gt;data&amp;nbsp;&lt;/b&gt;&amp;gt;&amp;gt;&lt;div&gt;&lt;br&gt;&lt;/div&gt;&lt;div&gt;&lt;b&gt;Doctor&lt;/b&gt;&lt;br&gt;&lt;/div&gt;" style="shape=rect;html=1;whiteSpace=wrap;align=center;verticalAlign=top;fillColor=#FFFFFF;" vertex="1" parent="1">
          <mxGeometry x="1663" y="340" width="148" height="60" as="geometry" />
        </mxCell>
        <mxCell id="aLUyHMG_e6lteH9gZZ4V-48" value="" style="endArrow=diamondThin;endFill=1;endSize=24;html=1;rounded=0;entryX=0.5;entryY=1;entryDx=0;entryDy=0;exitX=0.5;exitY=0;exitDx=0;exitDy=0;edgeStyle=orthogonalEdgeStyle;" edge="1" source="aLUyHMG_e6lteH9gZZ4V-47" target="aLUyHMG_e6lteH9gZZ4V-7" parent="1">
          <mxGeometry width="160" relative="1" as="geometry">
            <mxPoint x="1580" y="420" as="sourcePoint" />
            <mxPoint x="1570" y="290.0000000000002" as="targetPoint" />
          </mxGeometry>
        </mxCell>
        <mxCell id="aLUyHMG_e6lteH9gZZ4V-49" value="&amp;lt;&amp;lt; &lt;b&gt;interface&amp;nbsp;&lt;/b&gt;&amp;gt;&amp;gt;&lt;div&gt;&lt;br&gt;&lt;/div&gt;&lt;div&gt;&lt;b&gt;Int Appointments&lt;/b&gt;&lt;/div&gt;" style="shape=rect;html=1;whiteSpace=wrap;align=center;verticalAlign=top;fillColor=#FFFFFF;" vertex="1" parent="1">
          <mxGeometry x="1854" y="348" width="154" height="60" as="geometry" />
        </mxCell>
        <mxCell id="aLUyHMG_e6lteH9gZZ4V-50" value="" style="endArrow=diamondThin;endFill=1;endSize=24;html=1;rounded=0;entryX=0.5;entryY=1;entryDx=0;entryDy=0;exitX=0.5;exitY=0;exitDx=0;exitDy=0;edgeStyle=orthogonalEdgeStyle;" edge="1" source="aLUyHMG_e6lteH9gZZ4V-49" parent="1" target="aLUyHMG_e6lteH9gZZ4V-8">
          <mxGeometry width="160" relative="1" as="geometry">
            <mxPoint x="1911" y="254" as="sourcePoint" />
            <mxPoint x="2099" y="238" as="targetPoint" />
          </mxGeometry>
        </mxCell>
        <mxCell id="aLUyHMG_e6lteH9gZZ4V-51" value="&amp;lt;&amp;lt; &lt;b&gt;control&amp;nbsp;&lt;/b&gt;&amp;gt;&amp;gt;&lt;div&gt;&lt;br&gt;&lt;/div&gt;&lt;div&gt;&lt;b style=&quot;background-color: initial;&quot;&gt;Appointments controller&lt;/b&gt;&lt;/div&gt;" style="shape=rect;html=1;whiteSpace=wrap;align=center;verticalAlign=top;fillColor=#FFFFFF;" vertex="1" parent="1">
          <mxGeometry x="2017" y="348" width="164" height="60" as="geometry" />
        </mxCell>
        <mxCell id="aLUyHMG_e6lteH9gZZ4V-52" value="" style="endArrow=diamondThin;endFill=1;endSize=24;html=1;rounded=0;entryX=0.5;entryY=1;entryDx=0;entryDy=0;exitX=0.5;exitY=0;exitDx=0;exitDy=0;edgeStyle=orthogonalEdgeStyle;" edge="1" source="aLUyHMG_e6lteH9gZZ4V-51" parent="1" target="aLUyHMG_e6lteH9gZZ4V-8">
          <mxGeometry width="160" relative="1" as="geometry">
            <mxPoint x="1965" y="428" as="sourcePoint" />
            <mxPoint x="2099" y="238" as="targetPoint" />
          </mxGeometry>
        </mxCell>
        <mxCell id="aLUyHMG_e6lteH9gZZ4V-53" value="&amp;lt;&amp;lt; &lt;b&gt;data&amp;nbsp;&lt;/b&gt;&amp;gt;&amp;gt;&lt;div&gt;&lt;br&gt;&lt;/div&gt;&lt;div&gt;&lt;b&gt;Appointment&lt;/b&gt;&lt;/div&gt;" style="shape=rect;html=1;whiteSpace=wrap;align=center;verticalAlign=top;fillColor=#FFFFFF;" vertex="1" parent="1">
          <mxGeometry x="2192" y="348" width="148" height="60" as="geometry" />
        </mxCell>
        <mxCell id="aLUyHMG_e6lteH9gZZ4V-54" value="" style="endArrow=diamondThin;endFill=1;endSize=24;html=1;rounded=0;entryX=0.5;entryY=1;entryDx=0;entryDy=0;exitX=0.5;exitY=0;exitDx=0;exitDy=0;edgeStyle=orthogonalEdgeStyle;" edge="1" source="aLUyHMG_e6lteH9gZZ4V-53" parent="1" target="aLUyHMG_e6lteH9gZZ4V-8">
          <mxGeometry width="160" relative="1" as="geometry">
            <mxPoint x="2109" y="428" as="sourcePoint" />
            <mxPoint x="2099" y="238" as="targetPoint" />
          </mxGeometry>
        </mxCell>
        <mxCell id="aLUyHMG_e6lteH9gZZ4V-55" value="" style="endArrow=diamondThin;endFill=1;endSize=24;html=1;rounded=0;exitX=0.5;exitY=0;exitDx=0;exitDy=0;edgeStyle=orthogonalEdgeStyle;entryX=0.5;entryY=1;entryDx=0;entryDy=0;" edge="1" parent="1" source="aLUyHMG_e6lteH9gZZ4V-8" target="aLUyHMG_e6lteH9gZZ4V-2">
          <mxGeometry width="160" relative="1" as="geometry">
            <mxPoint x="1580" y="180" as="sourcePoint" />
            <mxPoint x="280" y="30" as="targetPoint" />
          </mxGeometry>
        </mxCell>
        <mxCell id="aLUyHMG_e6lteH9gZZ4V-56" value="&amp;lt;&amp;lt; &lt;b&gt;interface&amp;nbsp;&lt;/b&gt;&amp;gt;&amp;gt;&lt;div&gt;&lt;br&gt;&lt;/div&gt;&lt;div&gt;&lt;b&gt;Int Review doctor&lt;/b&gt;&lt;/div&gt;" style="shape=rect;html=1;whiteSpace=wrap;align=center;verticalAlign=top;fillColor=#FFFFFF;" vertex="1" parent="1">
          <mxGeometry x="2388" y="353" width="154" height="60" as="geometry" />
        </mxCell>
        <mxCell id="aLUyHMG_e6lteH9gZZ4V-57" value="" style="endArrow=diamondThin;endFill=1;endSize=24;html=1;rounded=0;entryX=0.5;entryY=1;entryDx=0;entryDy=0;exitX=0.5;exitY=0;exitDx=0;exitDy=0;edgeStyle=orthogonalEdgeStyle;" edge="1" source="aLUyHMG_e6lteH9gZZ4V-56" parent="1" target="aLUyHMG_e6lteH9gZZ4V-9">
          <mxGeometry width="160" relative="1" as="geometry">
            <mxPoint x="2445" y="259" as="sourcePoint" />
            <mxPoint x="2633" y="235" as="targetPoint" />
          </mxGeometry>
        </mxCell>
        <mxCell id="aLUyHMG_e6lteH9gZZ4V-58" value="&amp;lt;&amp;lt; &lt;b&gt;control&amp;nbsp;&lt;/b&gt;&amp;gt;&amp;gt;&lt;div&gt;&lt;br&gt;&lt;/div&gt;&lt;div&gt;&lt;b style=&quot;background-color: initial;&quot;&gt;Reviews controller&lt;/b&gt;&lt;/div&gt;" style="shape=rect;html=1;whiteSpace=wrap;align=center;verticalAlign=top;fillColor=#FFFFFF;" vertex="1" parent="1">
          <mxGeometry x="2551" y="353" width="164" height="60" as="geometry" />
        </mxCell>
        <mxCell id="aLUyHMG_e6lteH9gZZ4V-59" value="" style="endArrow=diamondThin;endFill=1;endSize=24;html=1;rounded=0;entryX=0.5;entryY=1;entryDx=0;entryDy=0;exitX=0.5;exitY=0;exitDx=0;exitDy=0;edgeStyle=orthogonalEdgeStyle;" edge="1" source="aLUyHMG_e6lteH9gZZ4V-58" parent="1" target="aLUyHMG_e6lteH9gZZ4V-9">
          <mxGeometry width="160" relative="1" as="geometry">
            <mxPoint x="2499" y="433" as="sourcePoint" />
            <mxPoint x="2633" y="235" as="targetPoint" />
          </mxGeometry>
        </mxCell>
        <mxCell id="aLUyHMG_e6lteH9gZZ4V-60" value="&amp;lt;&amp;lt; &lt;b&gt;data&amp;nbsp;&lt;/b&gt;&amp;gt;&amp;gt;&lt;div&gt;&lt;br&gt;&lt;/div&gt;&lt;div&gt;&lt;b&gt;Review&lt;/b&gt;&lt;/div&gt;" style="shape=rect;html=1;whiteSpace=wrap;align=center;verticalAlign=top;fillColor=#FFFFFF;" vertex="1" parent="1">
          <mxGeometry x="2726" y="353" width="148" height="60" as="geometry" />
        </mxCell>
        <mxCell id="aLUyHMG_e6lteH9gZZ4V-61" value="" style="endArrow=diamondThin;endFill=1;endSize=24;html=1;rounded=0;exitX=0.5;exitY=0;exitDx=0;exitDy=0;edgeStyle=orthogonalEdgeStyle;" edge="1" source="aLUyHMG_e6lteH9gZZ4V-60" parent="1" target="aLUyHMG_e6lteH9gZZ4V-9">
          <mxGeometry width="160" relative="1" as="geometry">
            <mxPoint x="2643" y="433" as="sourcePoint" />
            <mxPoint x="2633" y="235" as="targetPoint" />
          </mxGeometry>
        </mxCell>
        <mxCell id="aLUyHMG_e6lteH9gZZ4V-62" value="" style="endArrow=diamondThin;endFill=1;endSize=24;html=1;rounded=0;exitX=0.5;exitY=0;exitDx=0;exitDy=0;edgeStyle=orthogonalEdgeStyle;entryX=0.5;entryY=1;entryDx=0;entryDy=0;" edge="1" parent="1" source="aLUyHMG_e6lteH9gZZ4V-9" target="aLUyHMG_e6lteH9gZZ4V-2">
          <mxGeometry width="160" relative="1" as="geometry">
            <mxPoint x="2421" y="170" as="sourcePoint" />
            <mxPoint x="592" y="20" as="targetPoint" />
          </mxGeometry>
        </mxCell>
      </root>
    </mxGraphModel>
  </diagram>
</mxfile>
